<svg width="40" height="40" viewBox="0 0 40 40" fill="none" xmlns="http://www.w3.org/2000/svg">
  <rect width="40" height="40" rx="8" fill="#6366F1"/>
  <path d="M20 12C16.686 12 14 14.686 14 18V22C14 25.314 16.686 28 20 28C23.314 28 26 25.314 26 22V18C26 14.686 23.314 12 20 12Z" fill="white"/>
  <path d="M12 22C12 22.552 12.448 23 13 23H15C15.552 23 16 22.552 16 22C16 21.448 15.552 21 15 21H13C12.448 21 12 21.448 12 22Z" fill="white"/>
  <path d="M24 22C24 22.552 24.448 23 25 23H27C27.552 23 28 22.552 28 22C28 21.448 27.552 21 27 21H25C24.448 21 24 21.448 24 22Z" fill="white"/>
  <circle cx="18" cy="18" r="1.5" fill="#6366F1"/>
  <circle cx="22" cy="18" r="1.5" fill="#6366F1"/>
  <path d="M16 24C16 25.1046 17.7909 26 20 26C22.2091 26 24 25.1046 24 24" stroke="#6366F1" stroke-width="2" stroke-linecap="round"/>
</svg>