<svg width="40" height="40" viewBox="0 0 40 40" fill="none" xmlns="http://www.w3.org/2000/svg">
  <circle cx="20" cy="20" r="20" fill="url(#gradient)"/>
  <path d="M20 8C24.4183 8 28 11.5817 28 16V18C29.1046 18 30 18.8954 30 20V28C30 30.2091 28.2091 32 26 32H14C11.7909 32 10 30.2091 10 28V20C10 18.8954 10.8954 18 12 18V16C12 11.5817 15.5817 8 20 8ZM26 20H14V28C14 28.5523 14.4477 29 15 29H25C25.5523 29 26 28.5523 26 28V20ZM20 22C21.1046 22 22 22.8954 22 24C22 25.1046 21.1046 26 20 26C18.8954 26 18 25.1046 18 24C18 22.8954 18.8954 22 20 22ZM20 11C17.2386 11 15 13.2386 15 16V18H25V16C25 13.2386 22.7614 11 20 11Z" fill="white"/>
  <defs>
    <linearGradient id="gradient" x1="0%" y1="0%" x2="100%" y2="100%">
      <stop offset="0%" style="stop-color:#4F46E5;stop-opacity:1" />
      <stop offset="100%" style="stop-color:#7C3AED;stop-opacity:1" />
    </linearGradient>
  </defs>
</svg>